<?xml version="1.0" encoding="UTF-8" standalone="no"?>
<!-- Created with Inkscape (http://www.inkscape.org/) -->

<svg
   width="32"
   height="32"
   viewBox="-1.2 -1.1 9 9"
   version="1.1"
   id="svg5"
   inkscape:version="1.1.1 (eb90963e84, 2021-10-02)"
   sodipodi:docname="rysunek.svg"
   xmlns:inkscape="http://www.inkscape.org/namespaces/inkscape"
   xmlns:sodipodi="http://sodipodi.sourceforge.net/DTD/sodipodi-0.dtd"
   xmlns="http://www.w3.org/2000/svg"
   xmlns:svg="http://www.w3.org/2000/svg">
  <sodipodi:namedview
     id="namedview7"
     pagecolor="#505050"
     bordercolor="#eeeeee"
     borderopacity="1"
     inkscape:pageshadow="0"
     inkscape:pageopacity="0"
     inkscape:pagecheckerboard="0"
     inkscape:document-units="mm"
     showgrid="false"
     width="32mm"
     inkscape:zoom="17.0131"
     inkscape:cx="27.420047"
     inkscape:cy="18.368198"
     inkscape:window-width="1920"
     inkscape:window-height="1016"
     inkscape:window-x="1920"
     inkscape:window-y="27"
     inkscape:window-maximized="1"
     inkscape:current-layer="layer1"
     units="px" />
  <defs
     id="defs2" />
  <g
     inkscape:label="Warstwa 1"
     inkscape:groupmode="layer"
     id="layer1">
    <path
       style="fill:none;stroke:#000000;stroke-width:0.6px;stroke-linecap:butt;stroke-linejoin:miter;stroke-opacity:1"
       d="m 1.4141995,6.6395242 5.5313235,-0.012372 0.066064,-0.016865 0.040098,-0.035347 0.05166,-0.053394 0.042796,-0.069934 0.00872,-0.041736 0.010996,-0.062418 v -0.041695 c 0,-0.029486 0.01066,-0.032688 0,-0.067906 C 7.155194,6.2026392 7.154607,6.1791762 7.138701,6.1474502 7.122794,6.1157242 7.144811,6.1213012 7.106299,6.0772122 7.067791,6.0331232 7.045698,5.9942302 7.045698,5.9942302 L 6.7962816,5.6493825 6.6558437,5.4697002 6.6168182,5.3149002 6.6098755,2.8284492 6.5372381,2.406694 6.447139,2.2186235 6.3343742,2.0428609 6.1855598,1.8228831 5.9813322,1.571394 c 0,0 -0.1383144,-0.1524562 -0.1703557,-0.1742462 C 5.7789354,1.3753578 5.6127721,1.2591843 5.6127721,1.2591843 L 5.3121311,1.0731364 c 0,0 -0.1146739,-0.067849 -0.151302,-0.0788461 C 5.124201,0.98329355 5.0298937,0.93886963 4.9747074,0.92237453 4.9195209,0.9058794 4.8311927,0.87838755 4.7707467,0.86739081 4.7103011,0.85639406 4.5867057,0.83419756 4.5499662,0.83419756 c -0.03674,0 -0.308647,-0.002032 -0.308647,-0.002032 0,0 -0.1921222,0.005498 -0.2358017,0.0109966 -0.043679,0.005498 -0.1816851,0.0224872 -0.2086253,0.0274623 -0.02694,0.004975 -0.4081237,0.0832822 -0.4081237,0.0832822 L 3.1322928,1.0885618 2.9255749,1.2251834 2.6671058,1.440283 2.4986847,1.5987496 2.3096178,1.816221 2.1441754,2.0225387 1.9971329,2.259637 1.8795354,2.5276363 1.8557914,5.2367124 1.7776486,5.3991946 1.6726927,5.5694108 c 0,0 -0.1204202,0.1142631 -0.1471647,0.1579367 -0.026744,0.043674 -0.1296667,0.1758021 -0.1296667,0.1758021 0,0 -0.049211,0.058413 -0.070598,0.09462 -0.021387,0.036207 -0.03144,0.043859 -0.048038,0.08795 -0.016598,0.04409 -0.038037,0.075103 -0.049034,0.1247489 -0.010997,0.049646 -0.021993,0.040525 -0.021993,0.1063728 0,0.065848 -0.0055,0.079118 -0.0055,0.1074315 0,0.028313 -0.011154,0.00514 0.00537,0.054685 0.016529,0.049541 0.031872,0.075207 0.059569,0.097304 0.027697,0.022098 0.1485567,0.063264 0.1485568,0.063264 z"
       id="path143"
       sodipodi:nodetypes="ccccccccscscccccccccccsccsssscssccccccccccccscssssscscc" />
    <path
       style="fill:none;stroke:#000000;stroke-width:0.6px;stroke-linecap:butt;stroke-linejoin:miter;stroke-opacity:1"
       d="m 3.1181111,6.6484893 0.039275,0.1955054 c 0,0 0.0084,0.048265 0.016647,0.070259 0.00825,0.021992 0.024866,0.047076 0.041412,0.077517 0.016544,0.030441 0.02481,0.049751 0.041356,0.077443 0.016547,0.027692 0.038742,0.061504 0.055388,0.080949 0.016648,0.019444 0.058156,0.069303 0.071884,0.080283 0.013729,0.01098 0.030379,0.021926 0.052524,0.046923 0.022146,0.024995 0.053,0.052951 0.072244,0.072195 0.019243,0.019246 0.036273,0.05021 0.063867,0.072306 0.027595,0.022095 0.052411,0.021727 0.074505,0.041072 0.022095,0.019346 0.047192,0.036044 0.06944,0.052641 0.022246,0.016597 0.037815,0.023881 0.066742,0.041541 0.028928,0.017661 0.08182,0.042861 0.08182,0.042861 0,0 0.025678,0.00761 0.055849,0.018568 0.030172,0.010962 0.063736,0.016597 0.085562,0.022111 0.021826,0.00551 0.061627,0.0061 0.079686,0.011065 0.01806,0.00497 0.054845,0.00772 0.075792,0.00772 0.020947,0 0.076605,3e-7 0.095528,-0.0028 0.018923,-0.0028 0.060442,-0.00569 0.085007,-0.01115 0.024564,-0.00546 0.1050366,-0.025162 0.1050366,-0.025162 0,0 0.043651,-0.012793 0.054937,-0.015557 0.011287,-0.00276 0.067822,-0.019992 0.083405,-0.024863 0.015584,-0.00487 0.061187,-0.021288 0.061187,-0.021288 l 0.067403,-0.030226 c 0,0 0.037859,-0.01638 0.057107,-0.02738 0.019248,-0.011001 0.086742,-0.05539 0.086742,-0.05539 l 0.051867,-0.049066 0.037999,-0.035489 0.060392,-0.054693 0.035424,-0.043282 0.040539,-0.04937 c 0,0 0.019418,-0.027046 0.027363,-0.042426 0.00795,-0.01538 0.0229,-0.036425 0.027388,-0.051119 0.00449,-0.014695 0.017751,-0.038573 0.0205,-0.050386 0.00275,-0.011814 0.00833,-0.04262 0.013798,-0.067052 0.00547,-0.024432 0.011724,-0.057361 0.013769,-0.07322 0.00204,-0.015859 0.013094,-0.084492 0.013094,-0.084492 l 0.00271,-0.062948 -0.00273,-0.1304555"
       id="path145"
       sodipodi:nodetypes="ccccscsccssssccccsssccsccscccccccssccccc" />
  </g>
</svg>
